/* XPM */
static char *etmlogo____x___x__[] = {
/* columns rows colors chars-per-pixel */
"128 128 66 1",
"  c #134157",
". c #13445A",
"X c #154B64",
"o c #164E68",
"O c #17516B",
"+ c #18536E",
"@ c #195672",
"# c #195875",
"$ c #1A5C7B",
"% c #1B607F",
"& c #1C6282",
"* c #1D6689",
"= c #1F6B8E",
"- c #1F6D91",
"; c #206E93",
": c #207196",
"> c #22759C",
", c #237BA3",
"< c #247FA9",
"1 c #2582AD",
"2 c #2880A9",
"3 c #2685B1",
"4 c #2B86B0",
"5 c #2789B6",
"6 c #2A89B7",
"7 c #288CBB",
"8 c #2D90BE",
"9 c #2B93C4",
"0 c #2B97C9",
"q c #2C99CC",
"w c #3D9AC5",
"e c #339BCB",
"r c #2D9DD2",
"t c #329FD1",
"y c #2EA1D6",
"u c #2FA3D9",
"i c #35A1D5",
"p c #3AA2D2",
"a c #30A7DE",
"s c #30A8DF",
"d c #3DA9DC",
"f c #31A9E1",
"g c #3BADE2",
"h c #40A6D6",
"j c #49AEDD",
"k c #4BB0DE",
"l c #41AFE3",
"z c #45B1E3",
"x c #4CB4E4",
"c c #51B6E5",
"v c #56B8E6",
"b c #5BBBE7",
"n c #62BDE7",
"m c #64BEE8",
"M c #67C0E9",
"N c #6BC1E9",
"B c #73C4EA",
"V c #79C7EB",
"C c #7DC9EC",
"Z c #83CBEC",
"A c #8BCEEE",
"S c #8ED0EE",
"D c #92D2EE",
"F c #98D4EF",
"G c #96D3F0",
"H c None",
/* pixels */
"HHHHHHHHHHHHHHHHHHHHHHHHHHHHHHHHHHHHHHHHHHHHHHHHHHHHHHHHHHHHHHHHHHHHHHHHHHHHHHHHHHHHHHHHHHHHHHHHHHHHHHHHHHHHHHHHHHHHHHHHHHHHHHHH",
"HHHHHHHHHHHHHHHHHHHHHHHHHHHHHHHHHHHHHHHHHHHHHHHHHHHHHHHHHHHHHHHHHHHHHHHHHHHHHHHHHHHHHHHHHHHHHHHHHHHHHHHHHHHHHHHHHHHHHHHHHHHHHHHH",
"HHHHHHHHHHHHHHHHHHHHHHHHHHHHHHHHHHHHHHHHHHHHHHHHHHHHHHHHHHHHHHHHHHHHHHHHHHHHHHHHHHHHHHHHHHHHHHHHHHHHHHHHHHHHHHHHHHHHHHHHHHHHHHHH",
"HHHHHHHHHHHHHHHHHHHHHHHHHHHHHHHHHHHHHHHHHHHHHHHHHHHHHHHHHHHHHHHHHHHHHHHHHHHHHHHHHHHHHHHHHHHHHHHHHHHHHHHHHHHHHHHHHHHHHHHHHHHHHHHH",
"HHHHHHHHHHHHHHHHHHHHHHHHHHHHHHHHHHHHHHHHHHHHHHHHHHHHHHHHHHHHHHHHHHHHHHHHHHHHHHHHHHHHHHHHHHHHHHHHHHHHHHHHHHHHHHHHHHHHHHHHHHHHHHHH",
"HHHHHHHHHHHHHHHHHHHHHHHHHHHHHHHHHHHHHHHHHHHHHHHHHHHHHHHHHHHHHHHHHHHHHHHHHHHHHHHHHHHHHHHHHHHHHHHHHHHHHHHHHHHHHHHHHHHHHHHHHHHHHHHH",
"HHHHHHHHHHHHHHHHHHHHHHHHHHHHHHHHHHHHHHHHHHHHHHHHHHHHHHHHHHHHHHHHHHHHHHHHHHHHHHHHHHHHHHHHHHHHHHHHHHHHHHHHHHHHHHHHHHHHHHHHHHHHHHHH",
"HHHHHHHHHHHHHHHHHHHHHHHHHHHHHHHHHHHHHHHHHHHHHHHHHHHHHHHHHHHHHHHHHHHHHHHHHHHHHHHHHHHHHHHHHHHHHHHHHHHHHHHHHHHHHHHHHHHHHHHHHHHHHHHH",
"HHHHHHHHHHHHHHHHHHHHHHHHHHHHHHHHHHHHHHHHHHHHHHHHHHHHHHHHHHHHHHHHHHHHHHHHHHHHHHHHHHHHHHHHHHHHHHHHHHHHHHHHHHHHHHHHHHHHHHHHHHHHHHHH",
"HHHHHHHHHHHHHHHHHHHHHHHHHHHHHHHHHHHHHHHHHHHHHHHHHHHHHHHHHHHHHHHHHHHHHHHHHHHHHHHHHHHHHHHHHHHHHHHHHHHHHHHHHHHHHHHHHHHHHHHHHHHHHHHH",
"HHHHHHHHHHHHHHHHHHHHHHHHHHHHHHHHHHHHHHHHHHHHHHHHHHHHHHHHHHHHHHHHHHHHHHHHHHHHHHHHHHHHHHHHHHHHHHHHHHHHHHHHHHHHHHHHHHHHHHHHHHHHHHHH",
"HHHHHHHHHHHHHHHHHHHHHHHHHHHHHHHHHHHHHHHHHHHHHHHHHHHHHHHHHHHHHHHHHHHHHHHHHHHHHHHHHHHHHHHHHHHHHHHHHHHHHHHHHHHHHHHHHHHHHHHHHHHHHHHH",
"HHHHHHHHHHHHHHHHHHHHHHHHHHHHHHHHHHHHHHHHHHHHHHHHHHHHHHHHHHHHHHHHHHHHHHHHHHHHHHHHHHHHHHHHHHHHHHHHHHHHHHHHHHHHHHHHHHHHHHHHHHHHHHHH",
"HHHHHHHHHHHHHHHHHHHHHHHHHHHHHHHHHHHHHHHHHHHHHHHHHHHHHHHHHHHHHHHHHHHHHHHHHHHHHHHHHHHHHHHHHHHHHHHHHHHHHHHHHHHHHHHHHHHHHHHHHHHHHHHH",
"HHHHHHHHHHHHHHHHHHHHHHHHHHHHHHHHHHHHHHHHHHHHHHHHHHHHHHHHHHHHHHHHHHHHHHHHHHHHHHHHHHHHHHHHHHHHHHHHHHHHHHHHHHHHHHHHHHHHHHHHHHHHHHHH",
"HHHHHHHHHHHHHHHHHHHHHHHHHHHHHHHHHHHHHHHHHHHHHHHHHHHHHHHHHHHHHHHHHHHHHHHHHHHHHHHHHHHHHHHHHHHHHHHHHHHHHHHHHHHHHHHHHHHHHHHHHHHHHHHH",
"HHHHHHHHHHHHHHHHHHHHHHHHHHHHHHHHHHHHHHHHHHHHHHHHHHHHHHHHHHHHHHHHHHHHHHHHHHHHHHHHHHHHHHHHHHHHHHHHHHHHHHHHHHHHHHHHHHHHHHHHHHHHHHHH",
"HHHHHHHHHHHHHHHHHHHHHHHHHHHHHHHHHHHHHHHHHHHHHHHHHHHHHHHHHHHHHHHHHHHHHHHHHHHHHHHHHHHHHHHHHHHHHHHHHHHHHHHHHHHHHHHHHHHHHHHHHHHHHHHH",
"HHHHHHHHHHHHHHHHHHHHHHHHHHHHHHHHHHHHHHHHHHHHHHHHHHHHHHHHHHHHHHHHHHHHHHHHHHHHHHHHHHHHHHHHHHHHHHHHHHHHHHHHHHHHHHHHHHHHHHHHHHHHHHHH",
"HHHHHHHHHHHHHHHHHHHHHHHHHHHHHHHHHHHHHHHHHHHHHHHHHHHHHHHHHHHHHHHHHHHHHHHHHHHHHHHHHHHHHHHHHHHHHHHHHHHHHHHHHHHHHHHHHHHHHHHHHHHHHHHH",
"HHHHHHHHHHHHHHHHHHHHHHHHHHHHHHHHHHHHHHHHHHHHHHHHHHHHHHHHHHHHHHHHHHHHHHHHHHHHHHHHHHHHHHHHHHHHHHHHHHHHHHHHHHHHHHHHHHHHHHHHHHHHHHHH",
"HHHHHHHHHHHHHHHHHHHHHHHHHHHHHHHHHHHHHHHHHHHHHHHHHHHHHHHHHHHHHHHHHHHHHHHHHHHHHHHHHHHHHHHHHHHHHHHHHHHHHHHHHHHHHHHHHHHHHHHHHHHHHHHH",
"HHHHHHHHHHHHHHHHHHHHHHHHHHHHHHHHHHHHHHHHHHHHHHHHHHHHHHHHHHHHHHHHHHHHHHHHHHHHHHHHHHHHHHHHHHHHHHHHHHHHHHHHHHHHHHHHHHHHHHHHHHHHHHHH",
"HHAZZZZZZZZZZZZZZZZZZZZZZZZZZZZZZZZnHHHSZZZZZZZZZZZZZZZZZZZZZZZZZZZZZZCbHHHAZZZZZZZZZZZVcHHHHHHHHHHDAZZZZZZZZZZZZZZZZZZZZZZZZmHH",
"HBNvvvvvvvvvvvvvvvvvvvvvvvvvvvvvvvvp1HHNbvvvvvvvvvvvvvvvvvvvvvvvvvvvvvceHHBNvvvvvvvvvvvxeHHHHHHHHHHVnvvvvvvvvvvvvvvvvvvvvvvvvp3H",
"Hbxfffffffffffffffffffffffffffffffa7-HHcffffffffffffffffffffffffffffffa3HHbxfffffffffffa5HHHHHHHHHHbgfffffffffffffffffffffffs7-H",
"Hbxfffffffffffffffffffffffffffffffa6=HHxffffffffffffffffffffffffffffffu3HHbxfffffffffffa7HHHHHHHHHHbgfffffffffffffffffffffffa7-H",
"Hbxfffffffffffffffffffffffffffffffa6=HHxffffffffffffffffffffffffffffffu3HHbxfffffffffffa9,HHHHHHHHHvgfffffffffffffffffffffffa7-H",
"Hbxfffffffffffffffffffffffffffffffa6=HHxffffffffffffffffffffffffffffffu3HHbxffffffffffff0,HHHHHHHHMcffffffffffffffffffffffffa7-H",
"Hbxfffffffffffffffffffffffffffffffa6=HHxffffffffffffffffffffffffffffffu3HHbxffffffffffffr<HHHHHHHHmxffffffffffffffffffffffffa7-H",
"Hbxfffffffffffffffffffffffffffffffa6=HHxffffffffffffffffffffffffffffffu3HHbxffffffffffffy1HHHHHHHHmxffffffffffffffffffffffffa7-H",
"Hbxfffffffffffffffffffffffffffffffa6=HHxffffffffffffffffffffffffffffffu3HHbxffffffffffffu3HHHHHHHHmzffffffffffffffffffffffffa7-H",
"Hbxfffffffffffffffffffffffffffffffa6=HHxffffffffffffffffffffffffffffffu3HHbxffffffffffffa7HHHHHHHHnlffffffffffffffffffffffffa7-H",
"Hbxfffffffffffffffffffffffffffffffa6=HHxffffffffffffffffffffffffffffffu3HHbxffffffffffffa7>HHHHHHHbgffffffffffffffffffffffffa7-H",
"Hbxfffffffffffffffffffffffffffffffa6=HHxffffffffffffffffffffffffffffffu3HHbxffffffffffffs9,HHHHHHHbgffffffffffffffffffffffffa7-H",
"Hbxfffffffffffffffffffffffffffffffa6=HHxffffffffffffffffffffffffffffffu3HHbxfffffffffffffq,HHHHHHHvfffffffffffffffffffffffffa7-H",
"Hbxffffffffffffaaaaaaaaaaaaaaaaaaau5=HHxsaaaaaaaaaaaffffffffffffffffffa3HHbxfffffffffffffr<HHHHHHMcfffffffffffffffffffffffffa7-H",
"Hbxfffffffffaq5<,,,,,,,,,,,,,,,,,<,*#HHe1,,,,,,,,<<5qaffffaurrrrrrrrrrq,HHbxfffffffffffffy1HHHHHHmxfffffffffffffffffffffffffa7-H",
"Hbxffffffffs0=oXXXXXXXXXXXXXXXXXXXX.HHH-oXXXXXXXXXo$,rffffr<*&&&&&&&&&&+HHnxfffffffffffffu3HHHHHHmxfffffffffffffffffffffffffa7-H",
"Hbxffffffffa1OHHHHHHHHHHHHHHHHHHHHHHHHHHHHHHHHHHHHHHHifffs7&HHHHHHHHHHHHHHNxfffffffffffffa6HHHHHHmzfffffffffffffffffffffffffa7-H",
"Hbxffffffffu3HHHHHHHHHHHHHHHHHHHHHHHHHHHHHHHHHHHHHHHHvlffa6*HHHHHHHHHHHHHHVzfffffffffffffa7>HHHHHnlfffffffffffffffffffffffffa7-H",
"Hbxffffffffaq9HHHHHHHHHHHHHHHHHHHHHHHHHHHHHHHHHHHHHHHBzffa7-HHSZZZZZZZZZACbgfffffffffffffs9,HHHHHbgfffffffffffffffffffffffffa7-H",
"HbxfffffffffauHHHHHHHHHHHHHHHHHHHHHHHHHHHHHHHHHHHHHHAmgffa7-HHNbvvvvvvvvvzgfffffffffffffff0,HHHHHbgfffffffffffffffffffffffffa7-H",
"HbxffffffffffsuHHHHHHHHHHHHHHHHHHHHHHHHHHHHHHHHHHHHHVzfffa7-HHcgffffffffffffffffffffffffffr<HHHHHvffffffffffffffffffffffffffa7-H",
"HbxfffffffffffauHHHHHHHHHHHHHHHHHHHHHHHHHHHHHHHHHHHZvffffa7-HHcgffffffffffffffffffffffffffy1HHHHMcffffffffffffffffffffffffffa7-H",
"HbxffffffffffffaHHHHHHHHHHHHHHHHHHHHHHHHHHHHHHHHHHAmgffffa7-HHcgffffffffffffffffffffffffffu3HHHHmxffffffffffffffffffffffffffa7-H",
"HbxffffffffffffsuHHHHHHHHHHHHHHHHHHHHHHHHHHHHHHHHHBzfffffa7-HHcgffffffffffffffffffffffffffu6HHHHmzffffffffffffffffffffffffffa7-H",
"HbxfffffffffffffauHHHHHHHHHHHHHHHHHHHHHHHHHHHHHHHZcffffffa7-HHcgffffffffffffffffffffffffffa7>HHHnzffffffffffffffffffffffffffa7-H",
"HbxffffffffffffffaHHHHHAZVVVVVVVVVVVVVVVVBcHHHHHAmgffffffa7-HHcgffffffffffffffffffffffffffs9,HHHngfffffffffaafffffffffffffffa7-H",
"HbxffffffffffffffsuHHHHcxzzzzzzzzzzzzzzzzd2HHHHHBzfffffffa7-HHcgfffffffffffffffaaffffffffff0,HHHbgffffffffayusffffffffffffffa7-H",
"HbxfffffffffffffffauHHHrufffffffffffffffu3+HHHHCcffffffffa7-HHcgffffffffffffffauusfffffffffr<HHHbgffffffffuqufffffffffffffffa7-H",
"HbxffffffffffffffffaHHHHqqq0qqqqqqruffffq&HHHHAngffffffffa7-HHcgffffffffffffffuqysfffffffffr1HHHvfffffffffr9agffffffffffffffa7-H",
"HbxfffffffffffffffffaHHHH:&&&&&&&&>qfffu,XHHHHBlfffffffffa7-HHcgffffffffffffffu0yffffffffffu3HHMcffffffffs07ggffffffffffffffa7-H",
"HbxfffffffffffffffffsaHHHHHHHHHHHHHigfs9$HHHHCxffffffffffa7-HHcgffffffffffffffy9ygfffffffffu6HHmxffffffffa95ggffffffffffffffa7-H",
"HbxffffffffffffffffffgbHHHHHHHHHHHHxlfy:.HHHAbgffffffffffa7-HHcgffffffffffffffr7tgfffffffffa7,Hmzffffffffa71zlffffffffffffffa7-H",
"Hbxffffffffffffffffffgcnmmmmmmmmk0Hbza5@HHHANgfffffffffffa7-HHcgffffffffffffffr5Hggffffffffs9<Hnzffffffffu3Hxzffffffffffffffa7-H",
"Hbxfffffffffffffffffffffffffffff9>Hvzq*HHHHCxffffffffffffa7-HHcgffffffffffffffr1Hzgfffffffffq5Hbgffffffffy<Hczffffffffffffffa7-H",
"Hbxffffffffffffffffffffffffffffa7:Hvl1oHHHZbfffffffffffffa7-HHcgffffffffffffffr1Hzgfffffffffr9Hbgffffffffq>Hczffffffffffffffa7-H",
"Hbxffffffffffffffffffffffffffffs7:Hvp%HHHANgfffffffffffffa7-HHcgffffffffffffffr<Hzgfffffffffyrccgffffffff0:Hvzffffffffffffffa7-H",
"Hbxffffffffffffffffffffffffffffs7:Hc4XHHHVxffffffffffffffa7-HHcgffffffffffffffr,Hxlfffffffffasxxfffffffff9=Hvzffffffffffffffa7-H",
"Hbxffffffffffffffffffffffffffffs7:Hd;HHHZbfffffffffffffffa7-HHcgffffffffffffffr,HHzffffffffffflgffffffffa7*Hvzffffffffffffffa7-H",
"Hbxffffffffffffffffffffffffffffs7:H7&HHANgfffffffffffffffa7-HHcgffffffffffffffr,HHzfffffffffffffffffffffa3&Hbzffffffffffffffa7-H",
"Hbxffffffffffffffffffffffffffffs7:H<HHHNzffffffffffffffffa7-HHcgffffffffffffffr,HHzgffffffffffffffffffffu<HHbzffffffffffffffa7-H",
"Hbxffffffffffffffffffffffffffffs7;HHHHHdsffffffffffffffffa7-HHcgffffffffffffffr,HHxgffffffffffffffffffffy,HHbzffffffffffffffa7-H",
"Hbxffffffffffffffffffffffffffffs7;HHHHH0rafffffffffffffffa7-HHcgffffffffffffffr,HHxgffffffffffffffffffffr>HHbzffffffffffffffa7-H",
"Hbxffffffffffffffffffffffffffffs7;HHHHHH0yfffffffffffffffa7-HHcgffffffffffffffr,HHxgffffffffffffffffffffq-HHbzffffffffffffffa7-H",
"Hbxfffffffffffffffffffffffffffff7;HHHHHHHquffffffffffffffa7-HHcgffffffffffffffr,HHxzffffffffffffffffffff9=HHbzffffffffffffffa7-H",
"Hbxffffffffffffffffffffffssssssa7-HHHHHHH9rafffffffffffffa7-HHcgffffffffffffffr,HHHzffffffffffffffffffff7*HHbzffffffffffffffa7-H",
"Hbxffffffffffffffffffsr711111111;$HHHHHHHH0yfffffffffffffa7-HHcgffffffffffffffr,HHHzfffffffffffffffffffa5&HHbzffffffffffffffa7-H",
"Hbxffffffffffffffffffr,@XoooooooXHHHHHHHHHHquffffffffffffa7-HHcgffffffffffffffr,HHHzgffffffffffffffffffu1HHHbzffffffffffffffa7-H",
"Hbxfffffffffffffffffa1OHHHHHHHHHHHHHHHHHHHHHrafffffffffffa7-HHcgffffffffffffffr,HHHxgffffffffffffffffffu,HHHbzffffffffffffffa7-H",
"Hbxffffffffffffffffs9$HHHHHHHHHHCCjHHHHHHHHH0yfffffffffffa7-HHcgffffffffffffffr,HHHxgffffffffffffffffffr>HHHbzffffffffffffffa7-H",
"Hbxffffffffffffffffr-.HHHHHHHHHHBv9HHHHHHHHHHquffffffffffa7-HHcgffffffffffffffr,HHHxlffffffffffffffffffq;HHHbzffffffffffffffa7-H",
"Hbxfffffffffffffffu1oHHHHHHHHHHHMz7HHHHHHHHHHHrafffffffffa7-HHcgffffffffffffffr,HHHxzffffffffffffffffff0=HHHbzffffffffffffffa7-H",
"Hbxffffffffffffffa9#HHHHHHHHHHHHxi>HHHHHHHHHHH0ysffffffffa7-HHcgffffffffffffffr,HHHHzffffffffffffffffff7*HHHbzffffffffffffffa7-H",
"Hbxffffffffffffffr= HHHHHHHHHHHHxt>HHHHHHHHHHHH0uffffffffa7-HHcgffffffffffffffr,HHHHzfffffffffffffffffa5&HHHbzffffffffffffffa7-H",
"Hbxfffffffffffffu<XHHHHHHHHHHHDABxlnHHHHHHHHHHHHqafffffffa7-HHcgffffffffffffffr,HHHHzgffffffffffffffffa1&HHHbzffffffffffffffa7-H",
"Hbxffffffffffffa7#HHHHHHHHHFAVmbxzzvnmmHHHHHHHHH9rsffffffa7-HHcgffffffffffffffr,HHHHxgffffffffffffffffu,HHHHbzffffffffffffffa7-H",
"Hbxffffffffffffq* HHHHHHHFZNcgffffffgzcbbHHHHHHHH0uffffffa7-HHcgffffffffffffffr,HHHHxgffffffffffffffffy>HHHHbzffffffffffffffa7-H",
"Hbxfffffffffffu,XHHHHHHHABxgffffffffffflxcHHHHHHHHqafffffa7-HHcgffffffffffffffr,HHHHxlffffffffffffffffr:HHHHbzffffffffffffffa7-H",
"Hbxffffffffffa7@HHHHHHFZbgffffffffffffffglxHHHHHHH9raffffa7-HHcgffffffffffffffr,HHHHxzffffffffffffffff0-HHHHbzffffffffffffffa7-H",
"Hbxffffffffffq*HHHHHHGVxffffffffffffffffffgzzHHHHHH0uffffa7-HHcgffffffffffffffr,HHHHHzffffffffffffffff9*HHHHbzffffffffffffffa7-H",
"Hbxfffffffffu,XHHHHHCmhqqqqqqqqqqqqqqqqqqqqtitHHHHHHqafffa7-HHcgffffffffffffffr,HHHHHzfffffffffffffffs7*HHHHbzffffffffffffffa7-H",
"Hbxffffffffa7#HHHHHjw>&&&&&&&&&&&&&&&&&&&&&&*:HHHHHH0ufffa7-HHcgffffffffffffffr,HHHHHxgffffffffffffffa3&HHHHbzffffffffffffffa7-H",
"Hbxffffffffu<+HHHHHHHHHHHHHHHHHHHHHHHHHHHHHHHHHHHHHHHdgffa7-HHcgffffffffffffffr,HHHHHxgffffffffffffffu<HHHHHbzffffffffffffffa7-H",
"Hbxffffffffu5HHHHHHHHHHHHHHHHHHHHHHHHHHHHHHHHHHHHHHHHbzffa7-HHcgffffffffffffffr,HHHHHxgffffffffffffffy,HHHHHbzffffffffffffffa7-H",
"HbxffffffffayiHHHHHHHHHHHHHHHHHHHHHHHHHHHHHHHHHHHHHHHBzffa7-HHcgffffffffffffffr,HHHHHxlffffffffffffffr>HHHHHbzffffffffffffffa7-H",
"HbxffffffffffznVZZZZZZZZZZZZZZZZZZZmHHHSZZZZZZZZZZZAVvgffa7-HHcgffffffffffffffr,HHHHHxzffffffffffffffq;HHHHHbzffffffffffffffa7-H",
"Hbxffffffffffgzcvvvvvvbbbbbbbbbbbbbh6HHNbvvvvvvvvvvvzffffa7-HHcgffffffffffffffr,HHHHHHzffffffffffffff9=HHHHHbzffffffffffffffa7-H",
"Hbxfffffffffffffffffffffffffffffffs7-HHcfffffffffffffffffa7-HHcgffffffffffffffr,HHHHHHzffffffffffffff7*HHHHHbzffffffffffffffa7-H",
"Hbxfffffffffffffffffffffffffffffffa6=HHxfffffffffffffffffa7-HHcgffffffffffffffr,HHHHHHxgffffffffffffa5&HHHHHbzffffffffffffffa7-H",
"Hbxfffffffffffffffffffffffffffffffa6-HHxfffffffffffffffffa7-HHcgffffffffffffffr,HHHHHHxgffffffffffffa1$HHHHHbzffffffffffffffa7-H",
"Hbxfffffffffffffffffffffffffffffffa6-HHxfffffffffffffffffa7-HHcgffffffffffffffr,HHHHHHxgffffffffffffu,HHHHHHbzffffffffffffffa7-H",
"Hbxfffffffffffffffffffffffffffffffa6-HHxfffffffffffffffffa7-HHcgffffffffffffffr,HHHHHHxlffffffffffffr>HHHHHHbzffffffffffffffa7-H",
"Hbxfffffffffffffffffffffffffffffffa6-HHxfffffffffffffffffa7-HHcgffffffffffffffr,HHHHHHHzffffffffffffq:HHHHHHbzffffffffffffffa7-H",
"Hbxfffffffffffffffffffffffffffffffa6-HHxfffffffffffffffffa7-HHcgffffffffffffffr,HHHHHHHzffffffffffff0=HHHHHHbzffffffffffffffa7-H",
"Hbxfffffffffffffffffffffffffffffffa6-HHxfffffffffffffffffa7-HHcgffffffffffffffr,HHHHHHHzgfffffffffff9*HHHHHHbzffffffffffffffa7-H",
"Hbxfffffffffffffffffffffffffffffffa6-HHxfffffffffffffffffa7-HHcgffffffffffffffr,HHHHHHHxgffffffffffa6&HHHHHHbzffffffffffffffa7-H",
"Hbxfffffffffffffffffffffffffffffffa6-HHxfffffffffffffffffa7-HHcgffffffffffffffr,HHHHHHHxgffffffffffa1&HHHHHHbzffffffffffffffa7-H",
"Hbxfffffffffffffffffffffffffffffffa6-HHxfffffffffffffffffa7-HHcgffffffffffffffr,HHHHHHHxgffffffffffu<HHHHHHHbzffffffffffffffa7-H",
"Hbxfffffffffffffffffffffffffffffffa7-HHcfffffffffffffffffa7-HHcgffffffffffffffr,HHHHHHHxzffffffffffy>HHHHHHHbzffffffffffffffs7-H",
"Hvzauuuuuuuuuuuuuuuuuuuuuuuuuuuuuuy3*HHxiyyyyyyyyyyyyyyyyy3*HHxauuuuuuuuuuuuuu0>HHHHHHHHgauuuuuuuuu0;HHHHHHHvguuuuuuuuuuuuuuy5=H",
"Hi6:;;;;;;;;;;;;;;;;;;;;;;;;;;;;;;-$OHH6;===============-=$OHH8>;;;;;;;;;;;;;;*@HHHHHHHH6:;;;;;;;;;*OHHHHHHHe2;;;;;;;;;;;;;;-$OH",
"HHHHHHHHHHHHHHHHHHHHHHHHHHHHHHHHHHHHHHHHHHHHHHHHHHHHHHHHHHHHHHHHHHHHHHHHHHHHHHHHHHHHHHHHHHHHHHHHHHHHHHHHHHHHHHHHHHHHHHHHHHHHHHHH",
"HHHHHHHHHHHHHHHHHHHHHHHHHHHHHHHHHHHHHHHHHHHHHHHHHHHHHHHHHHHHHHHHHHHHHHHHHHHHHHHHHHHHHHHHHHHHHHHHHHHHHHHHHHHHHHHHHHHHHHHHHHHHHHHH",
"HHHHHHHHHHHHHHHHHHHHHHHHHHHHHHHHHHHHHHHHHHHHHHHHHHHHHHHHHHHHHHHHHHHHHHHHHHHHHHHHHHHHHHHHHHHHHHHHHHHHHHHHHHHHHHHHHHHHHHHHHHHHHHHH",
"HHHHHHHHHHHHHHHHHHHHHHHHHHHHHHHHHHHHHHHHHHHHHHHHHHHHHHHHHHHHHHHHHHHHHHHHHHHHHHHHHHHHHHHHHHHHHHHHHHHHHHHHHHHHHHHHHHHHHHHHHHHHHHHH",
"HHHHHHHHHHHHHHHHHHHHHHHHHHHHHHHHHHHHHHHHHHHHHHHHHHHHHHHHHHHHHHHHHHHHHHHHHHHHHHHHHHHHHHHHHHHHHHHHHHHHHHHHHHHHHHHHHHHHHHHHHHHHHHHH",
"HHHHHHHHHHHHHHHHHHHHHHHHHHHHHHHHHHHHHHHHHHHHHHHHHHHHHHHHHHHHHHHHHHHHHHHHHHHHHHHHHHHHHHHHHHHHHHHHHHHHHHHHHHHHHHHHHHHHHHHHHHHHHHHH",
"HHHHHHHHHHHHHHHHHHHHHHHHHHHHHHHHHHHHHHHHHHHHHHHHHHHHHHHHHHHHHHHHHHHHHHHHHHHHHHHHHHHHHHHHHHHHHHHHHHHHHHHHHHHHHHHHHHHHHHHHHHHHHHHH",
"HHHHHHHHHHHHHHHHHHHHHHHHHHHHHHHHHHHHHHHHHHHHHHHHHHHHHHHHHHHHHHHHHHHHHHHHHHHHHHHHHHHHHHHHHHHHHHHHHHHHHHHHHHHHHHHHHHHHHHHHHHHHHHHH",
"HHHHHHHHHHHHHHHHHHHHHHHHHHHHHHHHHHHHHHHHHHHHHHHHHHHHHHHHHHHHHHHHHHHHHHHHHHHHHHHHHHHHHHHHHHHHHHHHHHHHHHHHHHHHHHHHHHHHHHHHHHHHHHHH",
"HHHHHHHHHHHHHHHHHHHHHHHHHHHHHHHHHHHHHHHHHHHHHHHHHHHHHHHHHHHHHHHHHHHHHHHHHHHHHHHHHHHHHHHHHHHHHHHHHHHHHHHHHHHHHHHHHHHHHHHHHHHHHHHH",
"HHHHHHHHHHHHHHHHHHHHHHHHHHHHHHHHHHHHHHHHHHHHHHHHHHHHHHHHHHHHHHHHHHHHHHHHHHHHHHHHHHHHHHHHHHHHHHHHHHHHHHHHHHHHHHHHHHHHHHHHHHHHHHHH",
"HHHHHHHHHHHHHHHHHHHHHHHHHHHHHHHHHHHHHHHHHHHHHHHHHHHHHHHHHHHHHHHHHHHHHHHHHHHHHHHHHHHHHHHHHHHHHHHHHHHHHHHHHHHHHHHHHHHHHHHHHHHHHHHH",
"HHHHHHHHHHHHHHHHHHHHHHHHHHHHHHHHHHHHHHHHHHHHHHHHHHHHHHHHHHHHHHHHHHHHHHHHHHHHHHHHHHHHHHHHHHHHHHHHHHHHHHHHHHHHHHHHHHHHHHHHHHHHHHHH",
"HHHHHHHHHHHHHHHHHHHHHHHHHHHHHHHHHHHHHHHHHHHHHHHHHHHHHHHHHHHHHHHHHHHHHHHHHHHHHHHHHHHHHHHHHHHHHHHHHHHHHHHHHHHHHHHHHHHHHHHHHHHHHHHH",
"HHHHHHHHHHHHHHHHHHHHHHHHHHHHHHHHHHHHHHHHHHHHHHHHHHHHHHHHHHHHHHHHHHHHHHHHHHHHHHHHHHHHHHHHHHHHHHHHHHHHHHHHHHHHHHHHHHHHHHHHHHHHHHHH",
"HHHHHHHHHHHHHHHHHHHHHHHHHHHHHHHHHHHHHHHHHHHHHHHHHHHHHHHHHHHHHHHHHHHHHHHHHHHHHHHHHHHHHHHHHHHHHHHHHHHHHHHHHHHHHHHHHHHHHHHHHHHHHHHH",
"HHHHHHHHHHHHHHHHHHHHHHHHHHHHHHHHHHHHHHHHHHHHHHHHHHHHHHHHHHHHHHHHHHHHHHHHHHHHHHHHHHHHHHHHHHHHHHHHHHHHHHHHHHHHHHHHHHHHHHHHHHHHHHHH",
"HHHHHHHHHHHHHHHHHHHHHHHHHHHHHHHHHHHHHHHHHHHHHHHHHHHHHHHHHHHHHHHHHHHHHHHHHHHHHHHHHHHHHHHHHHHHHHHHHHHHHHHHHHHHHHHHHHHHHHHHHHHHHHHH",
"HHHHHHHHHHHHHHHHHHHHHHHHHHHHHHHHHHHHHHHHHHHHHHHHHHHHHHHHHHHHHHHHHHHHHHHHHHHHHHHHHHHHHHHHHHHHHHHHHHHHHHHHHHHHHHHHHHHHHHHHHHHHHHHH",
"HHHHHHHHHHHHHHHHHHHHHHHHHHHHHHHHHHHHHHHHHHHHHHHHHHHHHHHHHHHHHHHHHHHHHHHHHHHHHHHHHHHHHHHHHHHHHHHHHHHHHHHHHHHHHHHHHHHHHHHHHHHHHHHH",
"HHHHHHHHHHHHHHHHHHHHHHHHHHHHHHHHHHHHHHHHHHHHHHHHHHHHHHHHHHHHHHHHHHHHHHHHHHHHHHHHHHHHHHHHHHHHHHHHHHHHHHHHHHHHHHHHHHHHHHHHHHHHHHHH",
"HHHHHHHHHHHHHHHHHHHHHHHHHHHHHHHHHHHHHHHHHHHHHHHHHHHHHHHHHHHHHHHHHHHHHHHHHHHHHHHHHHHHHHHHHHHHHHHHHHHHHHHHHHHHHHHHHHHHHHHHHHHHHHHH",
"HHHHHHHHHHHHHHHHHHHHHHHHHHHHHHHHHHHHHHHHHHHHHHHHHHHHHHHHHHHHHHHHHHHHHHHHHHHHHHHHHHHHHHHHHHHHHHHHHHHHHHHHHHHHHHHHHHHHHHHHHHHHHHHH",
"HHHHHHHHHHHHHHHHHHHHHHHHHHHHHHHHHHHHHHHHHHHHHHHHHHHHHHHHHHHHHHHHHHHHHHHHHHHHHHHHHHHHHHHHHHHHHHHHHHHHHHHHHHHHHHHHHHHHHHHHHHHHHHHH",
"HHHHHHHHHHHHHHHHHHHHHHHHHHHHHHHHHHHHHHHHHHHHHHHHHHHHHHHHHHHHHHHHHHHHHHHHHHHHHHHHHHHHHHHHHHHHHHHHHHHHHHHHHHHHHHHHHHHHHHHHHHHHHHHH"
};
